<mxfile host="app.diagrams.net" modified="2021-10-28T08:30:21.969Z" agent="5.0 (Windows NT 10.0; Win64; x64) AppleWebKit/537.36 (KHTML, like Gecko) Chrome/94.0.4606.81 Safari/537.36 Edg/94.0.992.50" etag="hC42IGP-P8T5rc0h_swY" version="15.6.1" type="github">
  <diagram id="wTLzbjXwa1Qy_KupzcXm" name="第 1 页">
    <mxGraphModel dx="981" dy="574" grid="1" gridSize="10" guides="1" tooltips="1" connect="1" arrows="1" fold="1" page="1" pageScale="1" pageWidth="827" pageHeight="1169" background="#F4F1DE" math="0" shadow="0">
      <root>
        <mxCell id="0" />
        <mxCell id="1" parent="0" />
        <mxCell id="D-RKteGEOPfsyyXDw7xE-1" value="发起签署/查询流程状态/撤销/催办" style="swimlane;childLayout=stackLayout;resizeParent=1;resizeParentMax=0;startSize=20;fontStyle=0;sketch=1;fillColor=#F2CC8F;strokeColor=#E07A5F;fontColor=#393C56;" vertex="1" parent="1">
          <mxGeometry x="190" y="190" width="532.045" height="670" as="geometry" />
        </mxCell>
        <mxCell id="D-RKteGEOPfsyyXDw7xE-2" value="ERP " style="swimlane;startSize=20;fontStyle=0;sketch=1;fillColor=#F2CC8F;strokeColor=#E07A5F;fontColor=#393C56;" vertex="1" parent="D-RKteGEOPfsyyXDw7xE-1">
          <mxGeometry y="20" width="120" height="650" as="geometry" />
        </mxCell>
        <mxCell id="D-RKteGEOPfsyyXDw7xE-8" value="" style="strokeWidth=2;html=1;shape=mxgraph.flowchart.start_2;whiteSpace=wrap;fontStyle=0;sketch=1;fillColor=#F2CC8F;strokeColor=#E07A5F;fontColor=#393C56;" vertex="1" parent="D-RKteGEOPfsyyXDw7xE-2">
          <mxGeometry x="40" y="30" width="30" height="30" as="geometry" />
        </mxCell>
        <mxCell id="D-RKteGEOPfsyyXDw7xE-11" value="封装业务数据" style="whiteSpace=wrap;html=1;strokeWidth=2;fontStyle=0;sketch=1;fillColor=#F2CC8F;strokeColor=#E07A5F;fontColor=#393C56;" vertex="1" parent="D-RKteGEOPfsyyXDw7xE-2">
          <mxGeometry x="9.38" y="120" width="91.25" height="25" as="geometry" />
        </mxCell>
        <mxCell id="D-RKteGEOPfsyyXDw7xE-12" value="" style="edgeStyle=orthogonalEdgeStyle;rounded=0;orthogonalLoop=1;jettySize=auto;html=1;fontStyle=0;sketch=1;labelBackgroundColor=#F4F1DE;strokeColor=#E07A5F;fontColor=#393C56;" edge="1" parent="D-RKteGEOPfsyyXDw7xE-2" source="D-RKteGEOPfsyyXDw7xE-8" target="D-RKteGEOPfsyyXDw7xE-11">
          <mxGeometry relative="1" as="geometry" />
        </mxCell>
        <mxCell id="D-RKteGEOPfsyyXDw7xE-56" value="" style="strokeWidth=2;html=1;shape=mxgraph.flowchart.terminator;whiteSpace=wrap;fontSize=8;sketch=1;fillColor=#F2CC8F;strokeColor=#E07A5F;fontColor=#393C56;" vertex="1" parent="D-RKteGEOPfsyyXDw7xE-2">
          <mxGeometry x="9.38" y="555" width="50" height="30" as="geometry" />
        </mxCell>
        <mxCell id="D-RKteGEOPfsyyXDw7xE-3" value="MIP" style="swimlane;startSize=20;fontStyle=0;sketch=1;fillColor=#F2CC8F;strokeColor=#E07A5F;fontColor=#393C56;" vertex="1" parent="D-RKteGEOPfsyyXDw7xE-1">
          <mxGeometry x="120" y="20" width="166.26" height="650" as="geometry" />
        </mxCell>
        <mxCell id="D-RKteGEOPfsyyXDw7xE-14" value="&lt;font style=&quot;font-size: 11px&quot;&gt;接受请求&lt;/font&gt;" style="whiteSpace=wrap;html=1;strokeWidth=2;fontStyle=0;sketch=1;fillColor=#F2CC8F;strokeColor=#E07A5F;fontColor=#393C56;" vertex="1" parent="D-RKteGEOPfsyyXDw7xE-3">
          <mxGeometry x="27" y="160" width="76.87" height="28.12" as="geometry" />
        </mxCell>
        <mxCell id="D-RKteGEOPfsyyXDw7xE-36" value="&lt;font style=&quot;font-size: 8px&quot;&gt;带APPID调用&lt;/font&gt;" style="text;html=1;strokeColor=none;fillColor=none;align=center;verticalAlign=middle;whiteSpace=wrap;rounded=0;fontSize=11;sketch=1;fontColor=#393C56;" vertex="1" parent="D-RKteGEOPfsyyXDw7xE-3">
          <mxGeometry x="-10" y="110" width="80" height="30" as="geometry" />
        </mxCell>
        <mxCell id="D-RKteGEOPfsyyXDw7xE-63" style="edgeStyle=orthogonalEdgeStyle;curved=0;rounded=1;sketch=1;orthogonalLoop=1;jettySize=auto;html=1;entryX=0.5;entryY=0;entryDx=0;entryDy=0;labelBackgroundColor=#F4F1DE;strokeColor=#E07A5F;fontColor=#393C56;" edge="1" parent="D-RKteGEOPfsyyXDw7xE-3" source="D-RKteGEOPfsyyXDw7xE-51" target="D-RKteGEOPfsyyXDw7xE-53">
          <mxGeometry relative="1" as="geometry" />
        </mxCell>
        <mxCell id="D-RKteGEOPfsyyXDw7xE-51" value="查找连接器" style="rounded=0;whiteSpace=wrap;html=1;fontSize=8;sketch=1;fillColor=#F2CC8F;strokeColor=#E07A5F;fontColor=#393C56;" vertex="1" parent="D-RKteGEOPfsyyXDw7xE-3">
          <mxGeometry x="30" y="357.5" width="82.93" height="40" as="geometry" />
        </mxCell>
        <mxCell id="D-RKteGEOPfsyyXDw7xE-53" value="调用ERP下载文件" style="rounded=0;whiteSpace=wrap;html=1;fontSize=8;sketch=1;fillColor=#F2CC8F;strokeColor=#E07A5F;fontColor=#393C56;" vertex="1" parent="D-RKteGEOPfsyyXDw7xE-3">
          <mxGeometry x="32.96999999999997" y="430" width="77" height="40" as="geometry" />
        </mxCell>
        <mxCell id="D-RKteGEOPfsyyXDw7xE-4" value="生态能力中心" style="swimlane;startSize=20;fontStyle=0;sketch=1;fillColor=#F2CC8F;strokeColor=#E07A5F;fontColor=#393C56;" vertex="1" parent="D-RKteGEOPfsyyXDw7xE-1">
          <mxGeometry x="286.26" y="20" width="125.785" height="650" as="geometry" />
        </mxCell>
        <mxCell id="D-RKteGEOPfsyyXDw7xE-45" value="" style="edgeStyle=orthogonalEdgeStyle;rounded=0;orthogonalLoop=1;jettySize=auto;html=1;fontSize=8;sketch=1;labelBackgroundColor=#F4F1DE;strokeColor=#E07A5F;fontColor=#393C56;" edge="1" parent="D-RKteGEOPfsyyXDw7xE-4" source="D-RKteGEOPfsyyXDw7xE-26" target="D-RKteGEOPfsyyXDw7xE-44">
          <mxGeometry relative="1" as="geometry" />
        </mxCell>
        <mxCell id="D-RKteGEOPfsyyXDw7xE-26" value="根据APPD匹配到一个应用" style="whiteSpace=wrap;html=1;strokeWidth=2;fontStyle=0;sketch=1;fillColor=#F2CC8F;strokeColor=#E07A5F;fontColor=#393C56;" vertex="1" parent="D-RKteGEOPfsyyXDw7xE-4">
          <mxGeometry x="21.57" y="200" width="88.43" height="40" as="geometry" />
        </mxCell>
        <mxCell id="D-RKteGEOPfsyyXDw7xE-41" value="&lt;font style=&quot;font-size: 8px&quot;&gt;带APPID调用&lt;/font&gt;" style="text;html=1;strokeColor=none;fillColor=none;align=center;verticalAlign=middle;whiteSpace=wrap;rounded=0;fontSize=11;sketch=1;fontColor=#393C56;" vertex="1" parent="D-RKteGEOPfsyyXDw7xE-4">
          <mxGeometry x="-58.43" y="160" width="88.43" height="20" as="geometry" />
        </mxCell>
        <mxCell id="D-RKteGEOPfsyyXDw7xE-49" style="edgeStyle=orthogonalEdgeStyle;rounded=0;orthogonalLoop=1;jettySize=auto;html=1;entryX=0.505;entryY=-0.113;entryDx=0;entryDy=0;entryPerimeter=0;fontSize=8;sketch=1;labelBackgroundColor=#F4F1DE;strokeColor=#E07A5F;fontColor=#393C56;" edge="1" parent="D-RKteGEOPfsyyXDw7xE-4" source="D-RKteGEOPfsyyXDw7xE-44" target="D-RKteGEOPfsyyXDw7xE-42">
          <mxGeometry relative="1" as="geometry" />
        </mxCell>
        <mxCell id="D-RKteGEOPfsyyXDw7xE-44" value="根据项目ID匹配到契约锁企业" style="whiteSpace=wrap;html=1;fontStyle=0;strokeWidth=2;sketch=1;fillColor=#F2CC8F;strokeColor=#E07A5F;fontColor=#393C56;" vertex="1" parent="D-RKteGEOPfsyyXDw7xE-4">
          <mxGeometry x="13.68" y="270" width="104.22" height="40" as="geometry" />
        </mxCell>
        <mxCell id="D-RKteGEOPfsyyXDw7xE-42" value="返回&lt;br&gt;应用信息&lt;br&gt;企业令牌" style="rounded=0;whiteSpace=wrap;html=1;fontSize=8;sketch=1;fillColor=#F2CC8F;strokeColor=#E07A5F;fontColor=#393C56;" vertex="1" parent="D-RKteGEOPfsyyXDw7xE-4">
          <mxGeometry x="24.29" y="355" width="85.71" height="45" as="geometry" />
        </mxCell>
        <mxCell id="D-RKteGEOPfsyyXDw7xE-5" value="契约锁" style="swimlane;startSize=20;fontStyle=0;sketch=1;fillColor=#F2CC8F;strokeColor=#E07A5F;fontColor=#393C56;" vertex="1" parent="D-RKteGEOPfsyyXDw7xE-1">
          <mxGeometry x="412.04499999999996" y="20" width="120" height="650" as="geometry" />
        </mxCell>
        <mxCell id="D-RKteGEOPfsyyXDw7xE-54" value="调用契约锁&lt;br&gt;发起流程" style="rounded=0;whiteSpace=wrap;html=1;fontSize=8;sketch=1;fillColor=#F2CC8F;strokeColor=#E07A5F;fontColor=#393C56;" vertex="1" parent="D-RKteGEOPfsyyXDw7xE-5">
          <mxGeometry x="17.215000000000032" y="430" width="85.57" height="40" as="geometry" />
        </mxCell>
        <mxCell id="D-RKteGEOPfsyyXDw7xE-59" value="返回调用结果" style="rounded=0;whiteSpace=wrap;html=1;fontSize=8;sketch=1;fillColor=#F2CC8F;strokeColor=#E07A5F;fontColor=#393C56;" vertex="1" parent="D-RKteGEOPfsyyXDw7xE-5">
          <mxGeometry x="17.215000000000032" y="555" width="85.57" height="40" as="geometry" />
        </mxCell>
        <mxCell id="D-RKteGEOPfsyyXDw7xE-61" style="edgeStyle=orthogonalEdgeStyle;rounded=0;orthogonalLoop=1;jettySize=auto;html=1;exitX=0.5;exitY=1;exitDx=0;exitDy=0;fontSize=8;sketch=1;labelBackgroundColor=#F4F1DE;strokeColor=#E07A5F;fontColor=#393C56;" edge="1" parent="D-RKteGEOPfsyyXDw7xE-5" source="D-RKteGEOPfsyyXDw7xE-54" target="D-RKteGEOPfsyyXDw7xE-59">
          <mxGeometry relative="1" as="geometry" />
        </mxCell>
        <mxCell id="D-RKteGEOPfsyyXDw7xE-15" value="" style="edgeStyle=orthogonalEdgeStyle;rounded=0;orthogonalLoop=1;jettySize=auto;html=1;fontStyle=0;sketch=1;labelBackgroundColor=#F4F1DE;strokeColor=#E07A5F;fontColor=#393C56;" edge="1" parent="D-RKteGEOPfsyyXDw7xE-1" source="D-RKteGEOPfsyyXDw7xE-11" target="D-RKteGEOPfsyyXDw7xE-14">
          <mxGeometry relative="1" as="geometry" />
        </mxCell>
        <mxCell id="D-RKteGEOPfsyyXDw7xE-28" style="edgeStyle=orthogonalEdgeStyle;rounded=0;orthogonalLoop=1;jettySize=auto;html=1;entryX=0.5;entryY=0;entryDx=0;entryDy=0;sketch=1;labelBackgroundColor=#F4F1DE;strokeColor=#E07A5F;fontColor=#393C56;" edge="1" parent="D-RKteGEOPfsyyXDw7xE-1" source="D-RKteGEOPfsyyXDw7xE-14" target="D-RKteGEOPfsyyXDw7xE-26">
          <mxGeometry relative="1" as="geometry" />
        </mxCell>
        <mxCell id="D-RKteGEOPfsyyXDw7xE-50" style="edgeStyle=orthogonalEdgeStyle;rounded=0;orthogonalLoop=1;jettySize=auto;html=1;fontSize=8;entryX=1;entryY=0.5;entryDx=0;entryDy=0;sketch=1;labelBackgroundColor=#F4F1DE;strokeColor=#E07A5F;fontColor=#393C56;" edge="1" parent="D-RKteGEOPfsyyXDw7xE-1" source="D-RKteGEOPfsyyXDw7xE-42" target="D-RKteGEOPfsyyXDw7xE-51">
          <mxGeometry relative="1" as="geometry">
            <mxPoint x="240" y="397.5" as="targetPoint" />
          </mxGeometry>
        </mxCell>
        <mxCell id="D-RKteGEOPfsyyXDw7xE-62" style="edgeStyle=orthogonalEdgeStyle;rounded=0;orthogonalLoop=1;jettySize=auto;html=1;entryX=1.097;entryY=0.614;entryDx=0;entryDy=0;entryPerimeter=0;fontSize=8;sketch=1;labelBackgroundColor=#F4F1DE;strokeColor=#E07A5F;fontColor=#393C56;" edge="1" parent="D-RKteGEOPfsyyXDw7xE-1" source="D-RKteGEOPfsyyXDw7xE-59" target="D-RKteGEOPfsyyXDw7xE-56">
          <mxGeometry relative="1" as="geometry" />
        </mxCell>
        <mxCell id="D-RKteGEOPfsyyXDw7xE-55" value="" style="edgeStyle=orthogonalEdgeStyle;rounded=0;orthogonalLoop=1;jettySize=auto;html=1;fontSize=8;sketch=1;labelBackgroundColor=#F4F1DE;strokeColor=#E07A5F;fontColor=#393C56;" edge="1" parent="D-RKteGEOPfsyyXDw7xE-1" source="D-RKteGEOPfsyyXDw7xE-53" target="D-RKteGEOPfsyyXDw7xE-54">
          <mxGeometry relative="1" as="geometry" />
        </mxCell>
        <mxCell id="D-RKteGEOPfsyyXDw7xE-9" style="edgeStyle=orthogonalEdgeStyle;rounded=0;orthogonalLoop=1;jettySize=auto;html=1;entryX=0;entryY=0.5;entryDx=0;entryDy=0;entryPerimeter=0;fontStyle=0;sketch=1;labelBackgroundColor=#F4F1DE;strokeColor=#E07A5F;fontColor=#393C56;" edge="1" parent="1" source="D-RKteGEOPfsyyXDw7xE-6" target="D-RKteGEOPfsyyXDw7xE-8">
          <mxGeometry relative="1" as="geometry" />
        </mxCell>
        <mxCell id="D-RKteGEOPfsyyXDw7xE-10" value="业务操作" style="edgeLabel;html=1;align=center;verticalAlign=middle;resizable=0;points=[];fontStyle=0;sketch=1;labelBackgroundColor=#F4F1DE;fontColor=#393C56;" vertex="1" connectable="0" parent="D-RKteGEOPfsyyXDw7xE-9">
          <mxGeometry x="-0.6821" y="3" relative="1" as="geometry">
            <mxPoint x="31" y="3" as="offset" />
          </mxGeometry>
        </mxCell>
        <mxCell id="D-RKteGEOPfsyyXDw7xE-6" value="" style="shape=actor;whiteSpace=wrap;html=1;fontStyle=0;sketch=1;fillColor=#F2CC8F;strokeColor=#E07A5F;fontColor=#393C56;" vertex="1" parent="1">
          <mxGeometry x="90" y="240" width="20" height="30" as="geometry" />
        </mxCell>
      </root>
    </mxGraphModel>
  </diagram>
</mxfile>
